HIERARCHY
ROOT joint_Root
{
	OFFSET 0.0 0.0 0.0
	CHANNELS 6 Xposition Yposition Zposition Zrotation Xrotation Yrotation 
	JOINT Hips
	{
		OFFSET 4.5925 91.4895 -427.239
		CHANNELS 6 Xposition Yposition Zposition Zrotation Xrotation Yrotation 
		JOINT Spine
		{
			OFFSET 15.7357 0.0 0.0
			CHANNELS 6 Xposition Yposition Zposition Zrotation Xrotation Yrotation 
			JOINT Chest
			{
				OFFSET 8.98455 -0.406207 0.0
				CHANNELS 6 Xposition Yposition Zposition Zrotation Xrotation Yrotation 
				JOINT Neck
				{
					OFFSET 16.3773 0.0 0.0
					CHANNELS 6 Xposition Yposition Zposition Zrotation Xrotation Yrotation 
					JOINT Head
					{
						OFFSET 6.45672 0.0 0.0
						CHANNELS 6 Xposition Yposition Zposition Zrotation Xrotation Yrotation 
						End Site
						{
							OFFSET 0.0 0.0 0.0
						}
					}
				}
				JOINT Shoulder_L
				{
					OFFSET 12.9942 -0.242716 4.98039
					CHANNELS 6 Xposition Yposition Zposition Zrotation Xrotation Yrotation 
					JOINT UpperArm_L
					{
						OFFSET 5.34809 0.0 0.0
						CHANNELS 6 Xposition Yposition Zposition Zrotation Xrotation Yrotation 
						JOINT LowerArm_L
						{
							OFFSET 24.3286 1.87007e-05 0.0
							CHANNELS 6 Xposition Yposition Zposition Zrotation Xrotation Yrotation 
							JOINT Hand_L
							{
								OFFSET 22.2916 0.0 0.0
								CHANNELS 6 Xposition Yposition Zposition Zrotation Xrotation Yrotation 
								End Site
								{
									OFFSET 0.0 0.0 0.0
								}
							}
						}
					}
				}
				JOINT Shoulder_R
				{
					OFFSET 12.9945 -0.242716 -4.98039
					CHANNELS 6 Xposition Yposition Zposition Zrotation Xrotation Yrotation 
					JOINT UpperArm_R
					{
						OFFSET -5.34813 0.0 0.0
						CHANNELS 6 Xposition Yposition Zposition Zrotation Xrotation Yrotation 
						JOINT LowerArm_R
						{
							OFFSET -24.3289 0.000322201 0.0
							CHANNELS 6 Xposition Yposition Zposition Zrotation Xrotation Yrotation 
							JOINT Hand_R
							{
								OFFSET -22.2915 -0.000108084 0.0
								CHANNELS 6 Xposition Yposition Zposition Zrotation Xrotation Yrotation 
								End Site
								{
									OFFSET 0.0 0.0 0.0
								}
							}
						}
					}
				}
			}
		}
		JOINT UpperLeg_L
		{
			OFFSET -2.19248 -6.46944 0.0
			CHANNELS 6 Xposition Yposition Zposition Zrotation Xrotation Yrotation 
			JOINT LowerLeg_L
			{
				OFFSET 39.0811 0.0 -1.23785e-05
				CHANNELS 6 Xposition Yposition Zposition Zrotation Xrotation Yrotation 
				JOINT Foot_L
				{
					OFFSET 40.9854 0.0 -1.26872e-05
					CHANNELS 6 Xposition Yposition Zposition Zrotation Xrotation Yrotation 
					JOINT Toes_L
					{
						OFFSET 11.7543 0.0 0.0
						CHANNELS 6 Xposition Yposition Zposition Zrotation Xrotation Yrotation 
						End Site
						{
							OFFSET 0.0 0.0 0.0
						}
					}
				}
			}
		}
		JOINT UpperLeg_R
		{
			OFFSET -2.19251 6.46944 0.0
			CHANNELS 6 Xposition Yposition Zposition Zrotation Xrotation Yrotation 
			JOINT LowerLeg_R
			{
				OFFSET -39.0811 -0.00228153 -0.0401928
				CHANNELS 6 Xposition Yposition Zposition Zrotation Xrotation Yrotation 
				JOINT Foot_R
				{
					OFFSET -40.9854 0.0 0.0
					CHANNELS 6 Xposition Yposition Zposition Zrotation Xrotation Yrotation 
					JOINT Toes_R
					{
						OFFSET -11.7543 0.0 0.0
						CHANNELS 6 Xposition Yposition Zposition Zrotation Xrotation Yrotation 
						End Site
						{
							OFFSET 0.0 0.0 0.0
						}
					}
				}
			}
		}
	}
}
MOTION
Frames:	9
Frame Time:	0.0333333
0.000000 0.000000 0.000000 0.000000 0.000000 -0.000000 -0.649657 90.986400 3.866800 88.262300 -1.983820 2.868370 15.735700 0.000005 -0.000001 67.983600 87.259100 -68.847700 8.984550 -0.406207 -0.000000 -2.698930 -1.975370 -1.774970 16.377300 -0.000001 -0.000001 2.960230 -2.708770 2.139100 6.456720 -0.000001 -0.000000 -0.392074 -1.264640 2.556910 12.994200 -0.242716 4.980390 -85.807900 -8.801160 -64.403500 5.348090 -0.000007 -0.000001 -38.951700 -55.141400 -43.943100 24.328600 0.000019 0.000005 4.252310 9.744900 -23.714900 22.291600 -0.000001 0.000005 18.877500 4.363850 18.796200 12.994500 -0.242716 -4.980390 91.640300 -4.511790 -69.996600 -5.348130 -0.000001 -0.000004 -43.853700 -54.811600 -45.628200 -24.328900 0.000322 -0.000009 -11.545100 -22.751500 -27.840700 -22.291500 -0.000108 -0.000004 20.387000 4.945070 8.466360 -2.192480 -6.469440 -0.000000 -174.818000 -9.836200 -3.767800 39.081100 -0.000007 -0.000012 -0.211329 0.388821 28.525000 40.985400 -0.000006 -0.000013 -0.724866 3.343250 -71.772900 11.754300 -0.000000 0.000003 -0.000244 -0.002187 -16.659600 -2.192510 6.469440 -0.000001 177.936000 18.705500 177.325000 -39.081100 -0.002282 -0.040193 0.013333 -0.019435 27.285800 -40.985400 0.000008 0.000006 6.578980 11.566600 -72.269600 -11.754300 -0.000006 -0.000006 -0.001022 -0.015719 -17.212400
0.000000 0.000000 0.000000 0.000000 0.000000 -0.000000 -0.624130 91.003400 4.052970 88.314800 -1.948780 3.013360 15.735700 0.000005 -0.000001 66.427100 87.349700 -67.285500 8.984550 -0.406207 -0.000000 -2.923300 -2.038900 -1.769130 16.377300 -0.000001 -0.000001 3.994890 -2.820280 2.045770 6.456720 -0.000001 -0.000000 0.209354 -1.711980 2.384250 12.994200 -0.242716 4.980390 -85.384100 -9.457270 -63.831800 5.348090 -0.000007 -0.000001 -43.569900 -57.644300 -51.241300 24.328600 0.000019 0.000005 5.238290 11.098600 -25.467100 22.291600 -0.000001 0.000005 19.047500 4.466320 17.153200 12.994500 -0.242716 -4.980390 92.112300 -5.700680 -69.629400 -5.348130 -0.000001 -0.000004 -47.758100 -57.434100 -52.815700 -24.328900 0.000322 -0.000009 -13.130700 -22.131100 -31.764000 -22.291500 -0.000108 -0.000004 20.834700 5.007250 7.164710 -2.192480 -6.469440 -0.000000 -174.885000 -9.641770 -3.344510 39.081100 -0.000007 -0.000012 -0.210794 0.392425 28.243200 40.985400 -0.000006 -0.000013 -0.766608 3.160290 -71.779800 11.754300 -0.000000 0.000003 -0.000260 -0.002307 -16.663900 -2.192510 6.469440 -0.000001 177.820000 18.476600 177.616000 -39.081100 -0.002282 -0.040193 0.013102 -0.019044 27.217200 -40.985400 0.000008 0.000006 6.421280 11.361300 -72.155300 -11.754300 -0.000006 -0.000006 -0.000954 -0.014750 -17.173000
0.000000 0.000000 0.000000 0.000000 0.000000 -0.000000 -0.607406 91.046500 4.172180 88.353800 -2.124470 2.983250 15.735700 0.000005 -0.000001 66.996800 87.573700 -67.876000 8.984550 -0.406207 -0.000000 -3.313380 -1.810420 -1.811240 16.377300 -0.000001 -0.000001 4.937450 -2.788490 2.114680 6.456720 -0.000001 -0.000000 0.643045 -1.766080 2.142360 12.994200 -0.242716 4.980390 -84.742700 -10.459800 -63.121900 5.348090 -0.000007 -0.000001 -43.536400 -58.687100 -57.491300 24.328600 0.000019 0.000005 5.359490 8.810430 -31.488500 22.291600 -0.000001 0.000005 19.601300 4.725330 12.700700 12.994500 -0.242716 -4.980390 92.703200 -7.179180 -69.303100 -5.348130 -0.000001 -0.000004 -50.658000 -59.951600 -61.580900 -24.328900 0.000322 -0.000009 -15.135100 -19.477100 -39.047200 -22.291500 -0.000108 -0.000004 21.668400 5.156410 3.790940 -2.192480 -6.469440 -0.000000 -174.945000 -9.709740 -3.056160 39.081100 -0.000007 -0.000012 -0.205167 0.388344 27.848400 40.985400 -0.000006 -0.000013 -0.790522 3.060870 -71.695700 11.754300 -0.000000 0.000003 -0.000281 -0.002465 -16.669600 -2.192510 6.469440 -0.000001 177.767000 18.309400 177.597000 -39.081100 -0.002282 -0.040193 0.013442 -0.019686 27.239500 -40.985400 0.000008 0.000006 6.383960 11.405600 -71.873600 -11.754300 -0.000006 -0.000006 -0.063190 -0.091412 -17.316800
0.000000 0.000000 0.000000 0.000000 0.000000 -0.000000 -0.627088 91.068700 4.260190 88.367200 -2.364440 2.887770 15.735700 0.000005 -0.000001 68.572300 87.803600 -69.465200 8.984550 -0.406207 -0.000000 -3.688610 -1.514700 -1.835100 16.377300 -0.000001 -0.000001 5.436700 -2.606030 2.143830 6.456720 -0.000001 -0.000000 1.108490 -1.770090 1.991790 12.994200 -0.242716 4.980390 -84.022300 -11.333000 -61.949300 5.348090 -0.000007 -0.000001 -41.614400 -59.811300 -63.919500 24.328600 0.000019 0.000005 4.596130 5.271760 -41.185800 22.291600 -0.000001 0.000005 22.592200 4.933530 8.704390 12.994500 -0.242716 -4.980390 93.386300 -8.657830 -68.541200 -5.348130 -0.000001 -0.000004 -55.959500 -61.720900 -74.222200 -24.328900 0.000322 -0.000009 -16.106500 -15.069300 -48.000000 -22.291500 -0.000108 -0.000004 24.247500 5.307420 -0.134399 -2.192480 -6.469440 -0.000000 -174.899000 -10.125200 -2.922900 39.081100 -0.000007 -0.000012 -0.204032 0.390084 27.612000 40.985400 -0.000006 -0.000013 -0.777051 3.235120 -71.655100 11.754300 -0.000000 0.000003 -0.000269 -0.002378 -16.666400 -2.192510 6.469440 -0.000001 177.755000 18.311200 177.490000 -39.081100 -0.002282 -0.040193 0.013837 -0.020414 27.285000 -40.985400 0.000008 0.000006 6.474580 11.646900 -71.749600 -11.754300 -0.000006 -0.000006 -0.154332 -0.201419 -17.441600
0.000000 0.000000 0.000000 0.000000 0.000000 -0.000000 -0.681901 91.094000 4.289620 88.314900 -2.419440 2.763960 15.735700 0.000005 -0.000001 71.432700 87.951500 -72.362500 8.984550 -0.406207 -0.000000 -3.891920 -1.209150 -1.901440 16.377300 -0.000001 -0.000001 5.546710 -2.823060 2.312030 6.456720 -0.000001 -0.000000 1.528840 -2.053750 1.849470 12.994200 -0.242716 4.980390 -83.485300 -11.752200 -60.722400 5.348090 -0.000007 -0.000001 -40.838600 -62.142100 -72.457000 24.328600 0.000019 0.000005 4.717660 3.580690 -52.880800 22.291600 -0.000001 0.000005 27.006900 5.128360 4.457260 12.994500 -0.242716 -4.980390 94.050000 -9.769890 -67.351500 -5.348130 -0.000001 -0.000004 -60.942200 -62.506500 -87.352300 -24.328900 0.000322 -0.000009 -14.377200 -9.688240 -56.712300 -22.291500 -0.000108 -0.000004 27.654400 5.463470 -5.124160 -2.192480 -6.469440 -0.000000 -174.808000 -10.223900 -2.937990 39.081100 -0.000007 -0.000012 -0.205333 0.395144 27.458600 40.985400 -0.000006 -0.000013 -0.813516 3.293570 -71.594700 11.754300 -0.000000 0.000003 -0.000283 -0.002480 -16.670100 -2.192510 6.469440 -0.000001 177.849000 18.468700 177.456000 -39.081100 -0.002282 -0.040193 0.012976 -0.018862 27.137600 -40.985400 0.000008 0.000006 6.510460 11.839600 -71.649900 -11.754300 -0.000006 -0.000006 -0.230436 -0.291653 -17.441900
0.000000 0.000000 0.000000 0.000000 0.000000 -0.000000 -0.784567 91.107300 4.255030 88.258600 -2.258330 2.666520 15.735700 0.000005 -0.000001 74.975800 87.980100 -75.961600 8.984550 -0.406207 -0.000000 -3.871880 -0.946519 -2.004390 16.377300 -0.000001 -0.000001 5.352050 -3.047330 2.470450 6.456720 -0.000001 -0.000000 1.852650 -2.355980 1.852210 12.994200 -0.242716 4.980390 -83.027500 -12.194600 -59.930300 5.348090 -0.000007 -0.000001 -43.998300 -65.159400 -84.302700 24.328600 0.000019 0.000005 8.780520 4.545680 -62.836900 22.291600 -0.000001 0.000005 30.960900 5.284580 0.502156 12.994500 -0.242716 -4.980390 94.586800 -10.505200 -66.249400 -5.348130 -0.000001 -0.000004 -59.390800 -64.051900 -94.211300 -24.328900 0.000322 -0.000009 -13.931800 -7.018320 -63.774700 -22.291500 -0.000108 -0.000004 33.899000 5.637330 -13.895300 -2.192480 -6.469440 -0.000000 -174.714000 -10.025500 -3.099760 39.081100 -0.000007 -0.000012 -0.208750 0.401765 27.455900 40.985400 -0.000006 -0.000013 -0.899963 3.256440 -71.530500 11.754300 -0.000000 0.000003 -0.000253 -0.002255 -16.662000 -2.192510 6.469440 -0.000001 177.978000 18.750200 177.457000 -39.081100 -0.002282 -0.040193 0.012638 -0.018342 26.960700 -40.985400 0.000008 0.000006 6.546770 11.922100 -71.640800 -11.754300 -0.000006 -0.000006 -0.121716 -0.163287 -17.465300
0.000000 0.000000 0.000000 0.000000 0.000000 -0.000000 -0.870415 91.145600 4.170740 88.221200 -2.020630 2.501180 15.735700 0.000005 -0.000001 75.677000 88.026600 -76.709500 8.984550 -0.406207 -0.000000 -3.949200 -0.870237 -2.095950 16.377300 -0.000001 -0.000001 5.372160 -3.028340 2.326320 6.456720 -0.000001 -0.000000 2.044250 -2.594360 2.169310 12.994200 -0.242716 4.980390 -82.308800 -13.096600 -59.205100 5.348090 -0.000007 -0.000001 -48.522400 -66.250200 -94.591700 24.328600 0.000019 0.000005 13.751300 5.841310 -67.418800 22.291600 -0.000001 0.000005 37.354800 5.414790 -3.424700 12.994500 -0.242716 -4.980390 95.143500 -11.095700 -64.933300 -5.348130 -0.000001 -0.000004 -57.212400 -64.132500 -97.821300 -24.328900 0.000322 -0.000009 -11.236500 -5.021080 -66.221500 -22.291500 -0.000108 -0.000004 38.884800 5.677420 -23.432300 -2.192480 -6.469440 -0.000000 -174.716000 -9.577000 -3.314040 39.081100 -0.000007 -0.000012 -0.202507 0.391853 27.329900 40.985400 -0.000006 -0.000013 -1.003330 3.066630 -71.381600 11.754300 -0.000000 0.000003 -0.000251 -0.002239 -16.661400 -2.192510 6.469440 -0.000001 178.101000 19.150600 177.341000 -39.081100 -0.002282 -0.040193 0.012097 -0.017406 26.788200 -40.985400 0.000008 0.000006 6.607220 12.083200 -71.499600 -11.754300 -0.000006 -0.000006 -0.120948 -0.163115 -17.507400
0.000000 0.000000 0.000000 0.000000 0.000000 -0.000000 -0.961090 91.169800 4.154510 88.139300 -1.952370 2.352300 15.735700 0.000005 -0.000001 72.771200 88.163900 -73.839700 8.984550 -0.406207 -0.000000 -4.267040 -0.974728 -2.174540 16.377300 -0.000001 -0.000001 5.781670 -3.071210 2.324820 6.456720 -0.000001 -0.000000 2.378740 -2.599700 2.474480 12.994200 -0.242716 4.980390 -82.122100 -13.279400 -58.935600 5.348090 -0.000007 -0.000001 -48.787100 -65.429900 -97.563200 24.328600 0.000019 0.000005 12.959500 6.136900 -65.082500 22.291600 -0.000001 0.000005 37.294600 5.403760 -3.060060 12.994500 -0.242716 -4.980390 95.244500 -10.917300 -64.142300 -5.348130 -0.000001 -0.000004 -53.745300 -61.584800 -96.021600 -24.328900 0.000322 -0.000009 -10.953100 -5.476430 -63.748000 -22.291500 -0.000108 -0.000004 36.636900 5.680980 -20.003000 -2.192480 -6.469440 -0.000000 -174.623000 -9.363490 -3.453090 39.081100 -0.000007 -0.000012 -0.202848 0.393915 27.246700 40.985400 -0.000006 -0.000013 -1.098570 2.956200 -71.310700 11.754300 -0.000000 0.000003 -0.000239 -0.002152 -16.658300 -2.192510 6.469440 -0.000001 178.280000 19.349700 177.217000 -39.081100 -0.002282 -0.040193 0.012298 -0.017876 26.696800 -40.985400 0.000008 0.000006 6.693970 12.208700 -71.372800 -11.754300 -0.000006 -0.000006 -0.180197 -0.233734 -17.555100
0.000000 0.000000 0.000000 0.000000 0.000000 -0.000000 -1.048870 91.148900 4.149490 88.082400 -2.191080 2.591740 15.735700 0.000005 -0.000001 69.491600 88.133000 -70.594500 8.984550 -0.406207 -0.000000 -4.279710 -1.191310 -2.251600 16.377300 -0.000001 -0.000001 5.890770 -2.987310 2.378130 6.456720 -0.000001 -0.000000 2.742390 -2.290220 2.540950 12.994200 -0.242716 4.980390 -82.513900 -12.757400 -59.244200 5.348090 -0.000007 -0.000001 -46.648500 -63.356600 -93.737100 24.328600 0.000019 0.000005 8.578820 5.369380 -58.188000 22.291600 -0.000001 0.000005 30.884400 5.336460 -0.972374 12.994500 -0.242716 -4.980390 94.768400 -10.230500 -64.842100 -5.348130 -0.000001 -0.000004 -52.060600 -57.775000 -91.339500 -24.328900 0.000322 -0.000009 -11.092700 -7.737040 -55.520900 -22.291500 -0.000108 -0.000004 30.083000 5.626890 -13.090700 -2.192480 -6.469440 -0.000000 -174.451000 -9.563720 -3.212440 39.081100 -0.000007 -0.000012 -0.203778 0.393812 27.359600 40.985400 -0.000006 -0.000013 -1.172610 2.922640 -71.386200 11.754300 -0.000000 0.000003 -0.000246 -0.002206 -16.660300 -2.192510 6.469440 -0.000001 178.292000 19.319200 177.398000 -39.081100 -0.002282 -0.040193 0.012706 -0.018582 26.826700 -40.985400 0.000008 0.000006 6.839160 12.371800 -71.446200 -11.754300 -0.000006 -0.000006 -0.193143 -0.249235 -17.570400
